%TF.GenerationSoftware,KiCad,Pcbnew,6.0.11-2627ca5db0~126~ubuntu20.04.1*%
%TF.CreationDate,2023-07-30T19:56:55-05:00*%
%TF.ProjectId,tps61021a-slim,74707336-3130-4323-9161-2d736c696d2e,rev?*%
%TF.SameCoordinates,Original*%
%TF.FileFunction,Copper,L2,Bot*%
%TF.FilePolarity,Positive*%
%FSLAX46Y46*%
G04 Gerber Fmt 4.6, Leading zero omitted, Abs format (unit mm)*
G04 Created by KiCad (PCBNEW 6.0.11-2627ca5db0~126~ubuntu20.04.1) date 2023-07-30 19:56:55*
%MOMM*%
%LPD*%
G01*
G04 APERTURE LIST*
%TA.AperFunction,ComponentPad*%
%ADD10C,1.700000*%
%TD*%
%TA.AperFunction,ComponentPad*%
%ADD11O,1.700000X1.700000*%
%TD*%
%TA.AperFunction,SMDPad,CuDef*%
%ADD12R,1.600000X0.900000*%
%TD*%
%TA.AperFunction,ComponentPad*%
%ADD13C,0.600000*%
%TD*%
%TA.AperFunction,ViaPad*%
%ADD14C,0.800000*%
%TD*%
%TA.AperFunction,Conductor*%
%ADD15C,0.500000*%
%TD*%
G04 APERTURE END LIST*
D10*
%TO.P,J1,1,Pin_1*%
%TO.N,Net-(J1-Pad1)*%
X103987000Y-113800000D03*
D11*
%TO.P,J1,2,Pin_2*%
%TO.N,Net-(C2-Pad1)*%
X106527000Y-113800000D03*
%TO.P,J1,3,Pin_3*%
%TO.N,Earth*%
X109067000Y-113800000D03*
%TO.P,J1,4,Pin_4*%
%TO.N,Net-(C1-Pad1)*%
X111607000Y-113800000D03*
%TD*%
D12*
%TO.P,U1,9,PGND*%
%TO.N,Earth*%
X108204000Y-109220000D03*
D13*
X107704000Y-109220000D03*
X108704000Y-109220000D03*
%TD*%
D14*
%TO.N,Net-(C1-Pad1)*%
X113757500Y-106778800D03*
%TO.N,Net-(C2-Pad1)*%
X106527000Y-108270000D03*
X104902000Y-105273000D03*
%TO.N,Net-(L1-Pad2)*%
X110686700Y-111116900D03*
X110686700Y-106559400D03*
%TD*%
D15*
%TO.N,Net-(C1-Pad1)*%
X111607000Y-112499700D02*
X113757500Y-110349200D01*
X113757500Y-110349200D02*
X113757500Y-106778800D01*
X111607000Y-113800000D02*
X111607000Y-112499700D01*
%TO.N,Earth*%
X109067000Y-113800000D02*
X109067000Y-112499700D01*
X108704000Y-109220000D02*
X108704000Y-112136700D01*
X108704000Y-112136700D02*
X109067000Y-112499700D01*
X108704000Y-109220000D02*
X108204000Y-109220000D01*
%TO.N,Net-(C2-Pad1)*%
X106527000Y-108270000D02*
X106527000Y-106898000D01*
X106527000Y-106898000D02*
X104902000Y-105273000D01*
X106527000Y-113800000D02*
X106527000Y-108270000D01*
%TO.N,Net-(L1-Pad2)*%
X110686700Y-111116900D02*
X110686700Y-106559400D01*
%TD*%
%TA.AperFunction,Conductor*%
%TO.N,Earth*%
G36*
X115133621Y-100528502D02*
G01*
X115180114Y-100582158D01*
X115191500Y-100634500D01*
X115191500Y-115065500D01*
X115171498Y-115133621D01*
X115117842Y-115180114D01*
X115065500Y-115191500D01*
X112389343Y-115191500D01*
X112321222Y-115171498D01*
X112274729Y-115117842D01*
X112264625Y-115047568D01*
X112294119Y-114982988D01*
X112316175Y-114962921D01*
X112482656Y-114844172D01*
X112482659Y-114844170D01*
X112486860Y-114841173D01*
X112645096Y-114683489D01*
X112704594Y-114600689D01*
X112772435Y-114506277D01*
X112775453Y-114502077D01*
X112788995Y-114474678D01*
X112872136Y-114306453D01*
X112872137Y-114306451D01*
X112874430Y-114301811D01*
X112939370Y-114088069D01*
X112968529Y-113866590D01*
X112970156Y-113800000D01*
X112951852Y-113577361D01*
X112897431Y-113360702D01*
X112808354Y-113155840D01*
X112687014Y-112968277D01*
X112541175Y-112808002D01*
X112510124Y-112744156D01*
X112518519Y-112673657D01*
X112545274Y-112634107D01*
X114246411Y-110932970D01*
X114260823Y-110920584D01*
X114272418Y-110912051D01*
X114272423Y-110912046D01*
X114278318Y-110907708D01*
X114283057Y-110902130D01*
X114283060Y-110902127D01*
X114312535Y-110867432D01*
X114319465Y-110859916D01*
X114325160Y-110854221D01*
X114342781Y-110831949D01*
X114345572Y-110828545D01*
X114388091Y-110778497D01*
X114388092Y-110778495D01*
X114392833Y-110772915D01*
X114396161Y-110766399D01*
X114399528Y-110761350D01*
X114402695Y-110756221D01*
X114407234Y-110750484D01*
X114438155Y-110684325D01*
X114440061Y-110680425D01*
X114459222Y-110642901D01*
X114473269Y-110615392D01*
X114475008Y-110608284D01*
X114477107Y-110602641D01*
X114479024Y-110596878D01*
X114482122Y-110590250D01*
X114496987Y-110518783D01*
X114497957Y-110514499D01*
X114513973Y-110449045D01*
X114515308Y-110443590D01*
X114516000Y-110432436D01*
X114516036Y-110432438D01*
X114516275Y-110428445D01*
X114516649Y-110424253D01*
X114518140Y-110417085D01*
X114516046Y-110339679D01*
X114516000Y-110336272D01*
X114516000Y-107315799D01*
X114532881Y-107252799D01*
X114588723Y-107156079D01*
X114588724Y-107156078D01*
X114592027Y-107150356D01*
X114651042Y-106968728D01*
X114654411Y-106936679D01*
X114670314Y-106785365D01*
X114671004Y-106778800D01*
X114651042Y-106588872D01*
X114592027Y-106407244D01*
X114574009Y-106376035D01*
X114499841Y-106247574D01*
X114496540Y-106241856D01*
X114453567Y-106194129D01*
X114373175Y-106104845D01*
X114373174Y-106104844D01*
X114368753Y-106099934D01*
X114214252Y-105987682D01*
X114208224Y-105984998D01*
X114208222Y-105984997D01*
X114045819Y-105912691D01*
X114045818Y-105912691D01*
X114039788Y-105910006D01*
X113946387Y-105890153D01*
X113859444Y-105871672D01*
X113859439Y-105871672D01*
X113852987Y-105870300D01*
X113662013Y-105870300D01*
X113655561Y-105871672D01*
X113655556Y-105871672D01*
X113568612Y-105890153D01*
X113475212Y-105910006D01*
X113469182Y-105912691D01*
X113469181Y-105912691D01*
X113306778Y-105984997D01*
X113306776Y-105984998D01*
X113300748Y-105987682D01*
X113146247Y-106099934D01*
X113141826Y-106104844D01*
X113141825Y-106104845D01*
X113061434Y-106194129D01*
X113018460Y-106241856D01*
X113015159Y-106247574D01*
X112940992Y-106376035D01*
X112922973Y-106407244D01*
X112863958Y-106588872D01*
X112843996Y-106778800D01*
X112844686Y-106785365D01*
X112860590Y-106936679D01*
X112863958Y-106968728D01*
X112922973Y-107150356D01*
X112926276Y-107156078D01*
X112926277Y-107156079D01*
X112982119Y-107252799D01*
X112999000Y-107315799D01*
X112999000Y-109982829D01*
X112978998Y-110050950D01*
X112962095Y-110071924D01*
X111814580Y-111219439D01*
X111752268Y-111253465D01*
X111681453Y-111248400D01*
X111624617Y-111205853D01*
X111599806Y-111139333D01*
X111599964Y-111130070D01*
X111599514Y-111130070D01*
X111599514Y-111123465D01*
X111600204Y-111116900D01*
X111580242Y-110926972D01*
X111521227Y-110745344D01*
X111462081Y-110642900D01*
X111445200Y-110579901D01*
X111445200Y-107096399D01*
X111462081Y-107033399D01*
X111517923Y-106936679D01*
X111517924Y-106936678D01*
X111521227Y-106930956D01*
X111580242Y-106749328D01*
X111581683Y-106735624D01*
X111599514Y-106565965D01*
X111600204Y-106559400D01*
X111585607Y-106420516D01*
X111580932Y-106376035D01*
X111580932Y-106376033D01*
X111580242Y-106369472D01*
X111521227Y-106187844D01*
X111506859Y-106162957D01*
X111451344Y-106066803D01*
X111425740Y-106022456D01*
X111394430Y-105987682D01*
X111302375Y-105885445D01*
X111302374Y-105885444D01*
X111297953Y-105880534D01*
X111198857Y-105808536D01*
X111148794Y-105772163D01*
X111148793Y-105772162D01*
X111143452Y-105768282D01*
X111137424Y-105765598D01*
X111137422Y-105765597D01*
X110975019Y-105693291D01*
X110975018Y-105693291D01*
X110968988Y-105690606D01*
X110875588Y-105670753D01*
X110788644Y-105652272D01*
X110788639Y-105652272D01*
X110782187Y-105650900D01*
X110591213Y-105650900D01*
X110584761Y-105652272D01*
X110584756Y-105652272D01*
X110497812Y-105670753D01*
X110404412Y-105690606D01*
X110398382Y-105693291D01*
X110398381Y-105693291D01*
X110235978Y-105765597D01*
X110235976Y-105765598D01*
X110229948Y-105768282D01*
X110224607Y-105772162D01*
X110224606Y-105772163D01*
X110174543Y-105808536D01*
X110075447Y-105880534D01*
X110071026Y-105885444D01*
X110071025Y-105885445D01*
X109978971Y-105987682D01*
X109947660Y-106022456D01*
X109922056Y-106066803D01*
X109866542Y-106162957D01*
X109852173Y-106187844D01*
X109793158Y-106369472D01*
X109792468Y-106376033D01*
X109792468Y-106376035D01*
X109787793Y-106420516D01*
X109773196Y-106559400D01*
X109773886Y-106565965D01*
X109791718Y-106735624D01*
X109793158Y-106749328D01*
X109852173Y-106930956D01*
X109855476Y-106936678D01*
X109855477Y-106936679D01*
X109911319Y-107033399D01*
X109928200Y-107096399D01*
X109928200Y-110579901D01*
X109911319Y-110642900D01*
X109852173Y-110745344D01*
X109793158Y-110926972D01*
X109773196Y-111116900D01*
X109793158Y-111306828D01*
X109852173Y-111488456D01*
X109947660Y-111653844D01*
X110075447Y-111795766D01*
X110229948Y-111908018D01*
X110235976Y-111910702D01*
X110235978Y-111910703D01*
X110304458Y-111941192D01*
X110404412Y-111985694D01*
X110497812Y-112005547D01*
X110584756Y-112024028D01*
X110584761Y-112024028D01*
X110591213Y-112025400D01*
X110782187Y-112025400D01*
X110782187Y-112025609D01*
X110848893Y-112037811D01*
X110900738Y-112086316D01*
X110918128Y-112155149D01*
X110904437Y-112207647D01*
X110891231Y-112233508D01*
X110889492Y-112240615D01*
X110887393Y-112246259D01*
X110885476Y-112252022D01*
X110882378Y-112258650D01*
X110880888Y-112265812D01*
X110880888Y-112265813D01*
X110867514Y-112330112D01*
X110866544Y-112334396D01*
X110849192Y-112405310D01*
X110848500Y-112416464D01*
X110848464Y-112416462D01*
X110848225Y-112420455D01*
X110847851Y-112424647D01*
X110846360Y-112431815D01*
X110847747Y-112483102D01*
X110848454Y-112509221D01*
X110848500Y-112512628D01*
X110848500Y-112607655D01*
X110828498Y-112675776D01*
X110798153Y-112708415D01*
X110706100Y-112777530D01*
X110701965Y-112780635D01*
X110547629Y-112942138D01*
X110440204Y-113099618D01*
X110439898Y-113100066D01*
X110384987Y-113145069D01*
X110314462Y-113153240D01*
X110250715Y-113121986D01*
X110230018Y-113097502D01*
X110149426Y-112972926D01*
X110143136Y-112964757D01*
X109999806Y-112807240D01*
X109992273Y-112800215D01*
X109825139Y-112668222D01*
X109816552Y-112662517D01*
X109630117Y-112559599D01*
X109620705Y-112555369D01*
X109419959Y-112484280D01*
X109409988Y-112481646D01*
X109338837Y-112468972D01*
X109325540Y-112470432D01*
X109321000Y-112484989D01*
X109321000Y-113928000D01*
X109300998Y-113996121D01*
X109247342Y-114042614D01*
X109195000Y-114054000D01*
X108939000Y-114054000D01*
X108870879Y-114033998D01*
X108824386Y-113980342D01*
X108813000Y-113928000D01*
X108813000Y-112483102D01*
X108809082Y-112469758D01*
X108794806Y-112467771D01*
X108756324Y-112473660D01*
X108746288Y-112476051D01*
X108543868Y-112542212D01*
X108534359Y-112546209D01*
X108345463Y-112644542D01*
X108336738Y-112650036D01*
X108166433Y-112777905D01*
X108158726Y-112784748D01*
X108011590Y-112938717D01*
X108005109Y-112946722D01*
X107900498Y-113100074D01*
X107845587Y-113145076D01*
X107775062Y-113153247D01*
X107711315Y-113121993D01*
X107690618Y-113097509D01*
X107609822Y-112972617D01*
X107609820Y-112972614D01*
X107607014Y-112968277D01*
X107456670Y-112803051D01*
X107452615Y-112799848D01*
X107333407Y-112705703D01*
X107292345Y-112647785D01*
X107285500Y-112606821D01*
X107285500Y-110304000D01*
X107305502Y-110235879D01*
X107359158Y-110189386D01*
X107411500Y-110178000D01*
X107931885Y-110178000D01*
X107947124Y-110173525D01*
X107948329Y-110172135D01*
X107950000Y-110164452D01*
X107950000Y-110159884D01*
X108458000Y-110159884D01*
X108462475Y-110175123D01*
X108463865Y-110176328D01*
X108471548Y-110177999D01*
X109048669Y-110177999D01*
X109055490Y-110177629D01*
X109106352Y-110172105D01*
X109121604Y-110168479D01*
X109242054Y-110123324D01*
X109257649Y-110114786D01*
X109359724Y-110038285D01*
X109372285Y-110025724D01*
X109448786Y-109923649D01*
X109457324Y-109908054D01*
X109502478Y-109787606D01*
X109506105Y-109772351D01*
X109511631Y-109721486D01*
X109512000Y-109714672D01*
X109512000Y-109492115D01*
X109507525Y-109476876D01*
X109506135Y-109475671D01*
X109498452Y-109474000D01*
X108827325Y-109474000D01*
X108801680Y-109481530D01*
X108704000Y-109579210D01*
X108470812Y-109812399D01*
X108458000Y-109835861D01*
X108458000Y-110159884D01*
X107950000Y-110159884D01*
X107950000Y-109843326D01*
X107942469Y-109817679D01*
X107433885Y-109309095D01*
X107399859Y-109246783D01*
X107404924Y-109175968D01*
X107433885Y-109130905D01*
X107704000Y-108860790D01*
X107937188Y-108627601D01*
X107950000Y-108604139D01*
X107950000Y-108596674D01*
X108458000Y-108596674D01*
X108465530Y-108622319D01*
X108796399Y-108953189D01*
X108819861Y-108966000D01*
X109493884Y-108966000D01*
X109509123Y-108961525D01*
X109510328Y-108960135D01*
X109511999Y-108952452D01*
X109511999Y-108725331D01*
X109511629Y-108718510D01*
X109506105Y-108667648D01*
X109502479Y-108652396D01*
X109457324Y-108531946D01*
X109448786Y-108516351D01*
X109372285Y-108414276D01*
X109359724Y-108401715D01*
X109257649Y-108325214D01*
X109242054Y-108316676D01*
X109121606Y-108271522D01*
X109106351Y-108267895D01*
X109055486Y-108262369D01*
X109048672Y-108262000D01*
X108476115Y-108262000D01*
X108460876Y-108266475D01*
X108459671Y-108267865D01*
X108458000Y-108275548D01*
X108458000Y-108596674D01*
X107950000Y-108596674D01*
X107950000Y-108280116D01*
X107945525Y-108264877D01*
X107944135Y-108263672D01*
X107936452Y-108262001D01*
X107553114Y-108262001D01*
X107484993Y-108241999D01*
X107438500Y-108188343D01*
X107427805Y-108149174D01*
X107420542Y-108080072D01*
X107361527Y-107898444D01*
X107302381Y-107796000D01*
X107285500Y-107733001D01*
X107285500Y-106965070D01*
X107286933Y-106946120D01*
X107289099Y-106931885D01*
X107289099Y-106931881D01*
X107290199Y-106924651D01*
X107285915Y-106871982D01*
X107285500Y-106861767D01*
X107285500Y-106853707D01*
X107282211Y-106825493D01*
X107281778Y-106821118D01*
X107276454Y-106755661D01*
X107276453Y-106755658D01*
X107275860Y-106748363D01*
X107273604Y-106741399D01*
X107272413Y-106735440D01*
X107271029Y-106729585D01*
X107270182Y-106722319D01*
X107245265Y-106653673D01*
X107243848Y-106649545D01*
X107223607Y-106587064D01*
X107223606Y-106587062D01*
X107221351Y-106580101D01*
X107217555Y-106573846D01*
X107215049Y-106568372D01*
X107212330Y-106562942D01*
X107209833Y-106556063D01*
X107169814Y-106495024D01*
X107167467Y-106491305D01*
X107129595Y-106428893D01*
X107122197Y-106420516D01*
X107122224Y-106420492D01*
X107119571Y-106417500D01*
X107116868Y-106414267D01*
X107112856Y-106408148D01*
X107056617Y-106354872D01*
X107054175Y-106352494D01*
X105822125Y-105120444D01*
X105791387Y-105070285D01*
X105738569Y-104907729D01*
X105736527Y-104901444D01*
X105641040Y-104736056D01*
X105513253Y-104594134D01*
X105358752Y-104481882D01*
X105352724Y-104479198D01*
X105352722Y-104479197D01*
X105190319Y-104406891D01*
X105190318Y-104406891D01*
X105184288Y-104404206D01*
X105090888Y-104384353D01*
X105003944Y-104365872D01*
X105003939Y-104365872D01*
X104997487Y-104364500D01*
X104806513Y-104364500D01*
X104800061Y-104365872D01*
X104800056Y-104365872D01*
X104713113Y-104384353D01*
X104619712Y-104404206D01*
X104613682Y-104406891D01*
X104613681Y-104406891D01*
X104451278Y-104479197D01*
X104451276Y-104479198D01*
X104445248Y-104481882D01*
X104290747Y-104594134D01*
X104162960Y-104736056D01*
X104067473Y-104901444D01*
X104008458Y-105083072D01*
X103988496Y-105273000D01*
X104008458Y-105462928D01*
X104067473Y-105644556D01*
X104162960Y-105809944D01*
X104290747Y-105951866D01*
X104345385Y-105991563D01*
X104395776Y-106028174D01*
X104445248Y-106064118D01*
X104451276Y-106066802D01*
X104451278Y-106066803D01*
X104613681Y-106139109D01*
X104619712Y-106141794D01*
X104626167Y-106143166D01*
X104626176Y-106143169D01*
X104682772Y-106155199D01*
X104745669Y-106189350D01*
X105731595Y-107175276D01*
X105765621Y-107237588D01*
X105768500Y-107264371D01*
X105768500Y-107733001D01*
X105751619Y-107796000D01*
X105692473Y-107898444D01*
X105633458Y-108080072D01*
X105613496Y-108270000D01*
X105614186Y-108276565D01*
X105627340Y-108401715D01*
X105633458Y-108459928D01*
X105692473Y-108641556D01*
X105695776Y-108647278D01*
X105695777Y-108647279D01*
X105751619Y-108743999D01*
X105768500Y-108806999D01*
X105768500Y-112607655D01*
X105748498Y-112675776D01*
X105718153Y-112708415D01*
X105626100Y-112777530D01*
X105621965Y-112780635D01*
X105467629Y-112942138D01*
X105360201Y-113099621D01*
X105305293Y-113144621D01*
X105234768Y-113152792D01*
X105171021Y-113121538D01*
X105150324Y-113097054D01*
X105069822Y-112972617D01*
X105069820Y-112972614D01*
X105067014Y-112968277D01*
X104916670Y-112803051D01*
X104912619Y-112799852D01*
X104912615Y-112799848D01*
X104745414Y-112667800D01*
X104745410Y-112667798D01*
X104741359Y-112664598D01*
X104705028Y-112644542D01*
X104686124Y-112634107D01*
X104545789Y-112556638D01*
X104540920Y-112554914D01*
X104540916Y-112554912D01*
X104340087Y-112483795D01*
X104340083Y-112483794D01*
X104335212Y-112482069D01*
X104330119Y-112481162D01*
X104330116Y-112481161D01*
X104120373Y-112443800D01*
X104120367Y-112443799D01*
X104115284Y-112442894D01*
X104041452Y-112441992D01*
X103897081Y-112440228D01*
X103897079Y-112440228D01*
X103891911Y-112440165D01*
X103671091Y-112473955D01*
X103458756Y-112543357D01*
X103260607Y-112646507D01*
X103256474Y-112649610D01*
X103256471Y-112649612D01*
X103086100Y-112777530D01*
X103081965Y-112780635D01*
X102927629Y-112942138D01*
X102801743Y-113126680D01*
X102707688Y-113329305D01*
X102647989Y-113544570D01*
X102624251Y-113766695D01*
X102624548Y-113771848D01*
X102624548Y-113771851D01*
X102630011Y-113866590D01*
X102637110Y-113989715D01*
X102638247Y-113994761D01*
X102638248Y-113994767D01*
X102649031Y-114042614D01*
X102686222Y-114207639D01*
X102770266Y-114414616D01*
X102821019Y-114497438D01*
X102884291Y-114600688D01*
X102886987Y-114605088D01*
X103033250Y-114773938D01*
X103205126Y-114916632D01*
X103273715Y-114956712D01*
X103322439Y-115008350D01*
X103335510Y-115078133D01*
X103308779Y-115143905D01*
X103250732Y-115184784D01*
X103210145Y-115191500D01*
X100634500Y-115191500D01*
X100566379Y-115171498D01*
X100519886Y-115117842D01*
X100508500Y-115065500D01*
X100508500Y-100634500D01*
X100528502Y-100566379D01*
X100582158Y-100519886D01*
X100634500Y-100508500D01*
X115065500Y-100508500D01*
X115133621Y-100528502D01*
G37*
%TD.AperFunction*%
%TD*%
M02*
